<?xml version="1.0" encoding="utf-8"?>
<!-- Generator: Adobe Illustrator 27.1.1, SVG Export Plug-In . SVG Version: 6.00 Build 0)  -->
<svg version="1.1" id="Layer_1" xmlns="http://www.w3.org/2000/svg" xmlns:xlink="http://www.w3.org/1999/xlink" x="0px" y="0px"
	 viewBox="0 0 1080 1080" style="enable-background:new 0 0 1080 1080;" xml:space="preserve">
<style type="text/css">
	.st0{fill:url(#SVGID_1_);}
	.st1{fill:#DF088C;}
	.st2{fill:#EED533;}
	.st3{fill:#D5CFE2;}
	.st4{fill:#E5B764;}
	.st5{fill:#45C2CC;}
	.st6{fill:#A1B18D;}
	.st7{fill:#030059;}
	.st8{fill:none;stroke:#000000;stroke-width:10;stroke-miterlimit:10;}
	.st9{fill:url(#SVGID_00000128481472592999385730000011737079583487774624_);}
</style>
<g>
	<linearGradient id="SVGID_1_" gradientUnits="userSpaceOnUse" x1="441.0076" y1="527.7173" x2="930.6889" y2="527.7173">
		<stop  offset="0" style="stop-color:#D5CFE2"/>
		<stop  offset="0.2218" style="stop-color:#45C2CC"/>
		<stop  offset="0.6106" style="stop-color:#EED533"/>
		<stop  offset="1" style="stop-color:#DF088C"/>
	</linearGradient>
	<path class="st0" d="M840.5,672.7c-0.6,0-1,0-1.2,0h-218v-10l218.2,0c0.3,0,33.4,0.9,56.9-21.7c15.9-15.2,24-37.6,24.2-66.6
		c0.1-17.1-4.7-33-13.9-46.1c-15.2-21.6-38.9-32.6-70.4-32.8l-3.7,0l-1-3.6c-0.2-0.6-17.3-57-68.5-84.3c-33.8-18-75-19.6-122.3-4.7
		c-41.8,13.2-72,44.4-89.7,93l-1.6,4.4l-4.5-1.4c-0.2,0-17.5-5.1-37.8-1.3c-26.7,5.1-45.8,22.7-56.7,52.3l-9.4-3.5
		c15.3-41.5,43.6-54.9,64.6-58.8c16.3-3,30.6-1,37.6,0.5c19-49.2,50.8-81.1,94.5-94.9c50-15.7,93.8-13.9,130.1,5.5
		c47.9,25.6,67.4,73.3,72.1,86.8c41.2,1.3,63.5,20.7,74.9,37c10.5,14.8,15.9,32.8,15.8,52c-0.2,31.8-9.4,56.7-27.4,73.8
		C879.2,671.4,847.5,672.7,840.5,672.7z"/>
	<rect x="712.3" y="435.3" class="st1" width="40.9" height="39.8"/>
	<rect x="665.8" y="464.6" class="st2" width="32.1" height="31.3"/>
	<rect x="679.6" y="506.6" class="st3" width="18.3" height="17.9"/>
	<rect x="642.8" y="451.6" class="st4" width="13.7" height="13.4"/>
	<rect x="678.1" y="430.8" class="st5" width="22.9" height="22.4"/>
	<rect x="708.7" y="486" class="st6" width="26.1" height="25.5"/>
	<g>
		<g>
			<path class="st7" d="M179.8,604.1h37.7v17.5h-62v-16.2l37.5-54h-37.5v-17.5h62v16.2L179.8,604.1z"/>
			<path class="st7" d="M231.3,567.7c2.7-5.4,6.4-9.6,11.1-12.5c4.7-2.9,9.9-4.4,15.6-4.4c4.9,0,9.2,1,12.9,3c3.7,2,6.6,4.6,8.6,7.9
				v-9.9h21.4v69.7h-21.4v-9.9c-2.1,3.2-5,5.9-8.7,7.9c-3.7,2-8,3-12.9,3c-5.7,0-10.8-1.5-15.5-4.4c-4.7-3-8.4-7.2-11.1-12.6
				c-2.7-5.5-4.1-11.8-4.1-18.9C227.3,579.4,228.6,573.1,231.3,567.7z M275.1,574.1c-3-3.1-6.6-4.6-10.8-4.6
				c-4.2,0-7.9,1.5-10.8,4.6c-3,3-4.4,7.2-4.4,12.6c0,5.3,1.5,9.6,4.4,12.7c3,3.1,6.6,4.7,10.8,4.7c4.2,0,7.9-1.5,10.8-4.6
				c3-3.1,4.4-7.3,4.4-12.6C279.5,581.4,278,577.1,275.1,574.1z"/>
			<path class="st7" d="M317.9,541.3c-2.4-2.2-3.6-4.9-3.6-8.2c0-3.3,1.2-6.1,3.6-8.3c2.4-2.2,5.4-3.3,9.2-3.3
				c3.7,0,6.7,1.1,9.1,3.3c2.4,2.2,3.6,5,3.6,8.3c0,3.2-1.2,6-3.6,8.2c-2.4,2.2-5.4,3.3-9.1,3.3
				C323.4,544.6,320.3,543.5,317.9,541.3z M337.7,551.8v69.7h-21.4v-69.7H337.7z"/>
			<path class="st7" d="M415.3,559c4.9,5.3,7.3,12.6,7.3,21.8v40.7h-21.2v-37.9c0-4.7-1.2-8.3-3.6-10.9c-2.4-2.6-5.7-3.9-9.7-3.9
				c-4.1,0-7.3,1.3-9.7,3.9c-2.4,2.6-3.6,6.2-3.6,10.9v37.9h-21.4v-69.7h21.4v9.2c2.2-3.1,5.1-5.5,8.7-7.3c3.7-1.8,7.8-2.7,12.4-2.7
				C403.9,551.1,410.4,553.7,415.3,559z"/>
			<path class="st7" d="M467.8,554.8c3.7-6.8,8.9-12.1,15.4-15.9c6.5-3.8,13.7-5.7,21.7-5.7c9.7,0,18.1,2.3,25.1,6.9
				c7,4.6,12,11.1,15.2,19.6h-10.2c-2.5-5.9-6.3-10.5-11.4-13.9c-5.1-3.3-11.3-5-18.6-5c-6.4,0-12.2,1.5-17.3,4.5
				s-9.1,7.3-12.1,12.9c-2.9,5.6-4.4,12.1-4.4,19.6c0,7.4,1.5,13.9,4.4,19.5c2.9,5.6,6.9,9.9,12.1,12.9s10.9,4.5,17.3,4.5
				c7.2,0,13.4-1.6,18.6-4.9c5.1-3.3,8.9-7.9,11.4-13.7h10.2c-3.2,8.3-8.2,14.8-15.2,19.4c-7,4.6-15.3,6.9-25,6.9
				c-8,0-15.2-1.9-21.7-5.7c-6.5-3.8-11.6-9.1-15.4-15.8s-5.6-14.4-5.6-23C462.2,569.2,464.1,561.6,467.8,554.8z"/>
			<path class="st7" d="M571.3,529.1v92.5h-8.7v-92.5H571.3z"/>
			<path class="st7" d="M603.7,618.2c-5.1-2.9-9.2-7-12.1-12.2c-3-5.3-4.4-11.5-4.4-18.6c0-7.1,1.5-13.3,4.5-18.6
				c3-5.3,7.1-9.4,12.2-12.2c5.2-2.9,11-4.3,17.4-4.3c6.4,0,12.2,1.4,17.4,4.3c5.2,2.9,9.3,7,12.2,12.2c3,5.3,4.4,11.5,4.4,18.6
				c0,7-1.5,13.2-4.5,18.5c-3,5.3-7.1,9.4-12.4,12.3c-5.2,2.9-11.1,4.3-17.5,4.3C614.6,622.5,608.8,621.1,603.7,618.2z M633.5,611.9
				c3.8-2,6.9-5.1,9.3-9.2c2.4-4.1,3.6-9.2,3.6-15.2c0-6-1.2-11.1-3.5-15.2c-2.3-4.1-5.4-7.2-9.2-9.2c-3.8-2-8-3.1-12.5-3.1
				c-4.5,0-8.7,1-12.5,3.1c-3.8,2-6.9,5.1-9.2,9.2c-2.3,4.1-3.4,9.2-3.4,15.2c0,6,1.1,11.1,3.4,15.2c2.3,4.1,5.3,7.2,9.1,9.2
				c3.8,2,7.9,3.1,12.4,3.1C625.5,614.9,629.7,613.9,633.5,611.9z"/>
			<path class="st7" d="M730.5,553.3v68.2h-8.7v-12c-2,4.2-5.1,7.5-9.2,9.7c-4.2,2.2-8.8,3.4-14,3.4c-8.2,0-14.8-2.5-20-7.6
				c-5.2-5-7.7-12.3-7.7-21.9v-39.9h8.6v38.9c0,7.4,1.9,13.1,5.6,17c3.7,3.9,8.8,5.9,15.2,5.9c6.6,0,11.8-2.1,15.7-6.2
				c3.9-4.2,5.9-10.3,5.9-18.4v-37.1H730.5z"/>
			<path class="st7" d="M750.7,568.9c2.8-5.3,6.7-9.4,11.7-12.2c5-2.9,10.6-4.3,16.8-4.3c6,0,11.4,1.5,16.2,4.4
				c4.8,2.9,8.4,6.7,10.6,11.4v-39h8.7v92.5h-8.7v-15.2c-2.1,4.7-5.5,8.6-10.2,11.7c-4.7,3-10.3,4.6-16.7,4.6
				c-6.2,0-11.9-1.5-16.8-4.4c-5-2.9-8.8-7-11.6-12.4c-2.8-5.3-4.2-11.5-4.2-18.5S747.9,574.2,750.7,568.9z M802.7,572.9
				c-2.2-4.2-5.3-7.4-9.2-9.6c-3.9-2.2-8.1-3.4-12.8-3.4c-4.8,0-9.2,1.1-13,3.2c-3.8,2.2-6.9,5.3-9.1,9.4c-2.2,4.1-3.3,9-3.3,14.7
				c0,5.6,1.1,10.5,3.3,14.7c2.2,4.2,5.2,7.4,9.1,9.6c3.8,2.2,8.2,3.3,13,3.3c4.7,0,8.9-1.1,12.8-3.4c3.9-2.2,6.9-5.5,9.2-9.6
				c2.2-4.2,3.4-9,3.4-14.5S804.9,577.1,802.7,572.9z"/>
			<path class="st7" d="M839.1,617.1c-5-3.6-7.7-8.6-8.3-14.8h9c0.4,3.8,2.2,6.9,5.4,9.3c3.2,2.4,7.5,3.6,12.9,3.6
				c4.7,0,8.5-1.1,11.2-3.4c2.7-2.2,4.1-5,4.1-8.4c0-2.3-0.8-4.2-2.2-5.7c-1.5-1.5-3.4-2.7-5.7-3.6c-2.3-0.9-5.4-1.8-9.3-2.8
				c-5.1-1.3-9.2-2.7-12.4-4c-3.2-1.3-5.9-3.3-8.1-5.9c-2.2-2.6-3.3-6.1-3.3-10.6c0-3.3,1-6.4,3-9.2c2-2.8,4.8-5.1,8.5-6.7
				c3.7-1.7,7.8-2.5,12.5-2.5c7.3,0,13.2,1.9,17.7,5.6c4.5,3.7,6.9,8.8,7.2,15.3h-8.7c-0.2-4-1.8-7.2-4.7-9.7
				c-2.9-2.5-6.8-3.7-11.8-3.7c-4.4,0-8,1-10.7,3.1c-2.7,2.1-4.1,4.7-4.1,7.7c0,2.7,0.8,4.9,2.4,6.6c1.6,1.7,3.6,3,6.1,4
				c2.4,1,5.7,2,9.7,3.2c4.9,1.3,8.8,2.6,11.7,3.9c2.9,1.2,5.4,3.1,7.5,5.5c2.1,2.4,3.2,5.6,3.2,9.6c0,3.7-1,6.9-3,9.8
				c-2,2.9-4.8,5.1-8.4,6.8c-3.6,1.7-7.7,2.5-12.4,2.5C850.5,622.5,844.1,620.7,839.1,617.1z"/>
		</g>
	</g>
	<g>
		<g>
			<path class="st7" d="M158.9,673.2h7.3v1.1h-8.6v-19.7h1.3V673.2z"/>
			<path class="st7" d="M182.7,667.1h-13.1c0,1.4,0.3,2.5,0.9,3.4c0.6,0.9,1.3,1.6,2.2,2.1c0.9,0.5,1.9,0.7,3,0.7
				c1.5,0,2.7-0.4,3.8-1.1c1-0.7,1.6-1.7,1.9-3h1.3c-0.3,1.5-1.1,2.8-2.3,3.8c-1.2,1-2.8,1.4-4.7,1.4c-1.4,0-2.7-0.3-3.8-1
				c-1.1-0.6-2-1.5-2.6-2.7c-0.6-1.2-1-2.6-1-4.2c0-1.6,0.3-3,0.9-4.1c0.6-1.2,1.5-2.1,2.6-2.7c1.1-0.6,2.4-0.9,3.8-0.9
				c1.5,0,2.7,0.3,3.8,0.9c1.1,0.6,1.9,1.5,2.4,2.5c0.6,1,0.8,2.2,0.8,3.3C182.8,666.3,182.7,666.8,182.7,667.1z M180.8,662.7
				c-0.5-0.9-1.3-1.6-2.2-2.1c-0.9-0.5-1.9-0.7-3-0.7s-2,0.2-3,0.7c-0.9,0.5-1.6,1.2-2.2,2.1c-0.6,0.9-0.9,2.1-0.9,3.4h11.9
				C181.5,664.7,181.3,663.6,180.8,662.7z"/>
			<path class="st7" d="M188.4,660.1v10.1c0,1.1,0.2,1.9,0.6,2.3c0.4,0.4,1.1,0.6,2.2,0.6h1.7v1.1H191c-1.3,0-2.3-0.3-2.9-0.9
				c-0.6-0.6-0.9-1.7-0.9-3.1v-10.1h-2.3V659h2.3v-3.9h1.3v3.9h4.5v1.1H188.4z"/>
			<path class="st7" d="M196.4,654.6h1.6l-2.2,5.7h-1L196.4,654.6z"/>
			<path class="st7" d="M202,673.3c-1.1-0.7-1.7-1.8-1.8-3.2h1.3c0.1,1,0.5,1.8,1.4,2.4c0.8,0.6,1.9,0.9,3.3,0.9
				c1.2,0,2.1-0.3,2.8-0.9c0.7-0.6,1-1.3,1-2.2c0-0.6-0.2-1.1-0.5-1.5c-0.4-0.4-0.8-0.7-1.4-0.9c-0.5-0.2-1.3-0.4-2.2-0.7
				c-1.1-0.3-2-0.6-2.7-0.9c-0.7-0.3-1.3-0.7-1.8-1.3c-0.5-0.6-0.7-1.4-0.7-2.3c0-0.7,0.2-1.4,0.6-2c0.4-0.6,1-1.1,1.8-1.4
				c0.8-0.4,1.6-0.5,2.6-0.5c1.6,0,2.9,0.4,3.9,1.2c1,0.8,1.5,1.9,1.6,3.3h-1.3c-0.1-1-0.4-1.8-1.2-2.5s-1.7-1-3-1
				c-1.1,0-2,0.3-2.7,0.8c-0.7,0.6-1.1,1.2-1.1,2c0,0.7,0.2,1.3,0.6,1.7c0.4,0.4,0.9,0.8,1.5,1c0.6,0.2,1.4,0.5,2.3,0.7
				c1.1,0.3,1.9,0.6,2.6,0.8s1.2,0.7,1.6,1.2c0.4,0.5,0.7,1.2,0.7,2.1c0,0.8-0.2,1.5-0.6,2.1c-0.4,0.6-1,1.1-1.8,1.5
				c-0.8,0.4-1.6,0.5-2.6,0.5C204.5,674.4,203.1,674.1,202,673.3z"/>
			<path class="st7" d="M223.1,662.5c0.6-1.2,1.5-2.1,2.6-2.7c1.1-0.6,2.4-1,3.8-1c1.5,0,2.9,0.4,4,1.2s1.9,1.8,2.4,3v-9.5h1.3v20.7
				h-1.3v-4c-0.4,1.3-1.2,2.3-2.4,3.1c-1.1,0.8-2.5,1.2-4.1,1.2c-1.4,0-2.7-0.3-3.8-1c-1.1-0.6-2-1.6-2.6-2.7
				c-0.6-1.2-0.9-2.6-0.9-4.1S222.4,663.7,223.1,662.5z M235.1,663.1c-0.6-1-1.3-1.8-2.3-2.4c-1-0.5-2-0.8-3.2-0.8
				c-1.2,0-2.3,0.3-3.2,0.8c-0.9,0.5-1.7,1.3-2.2,2.3c-0.5,1-0.8,2.2-0.8,3.6c0,1.4,0.3,2.6,0.8,3.6c0.5,1,1.3,1.8,2.2,2.3
				c0.9,0.5,2,0.8,3.2,0.8c1.2,0,2.2-0.3,3.2-0.8c1-0.5,1.7-1.3,2.3-2.4c0.5-1,0.8-2.2,0.8-3.5C235.9,665.3,235.6,664.1,235.1,663.1
				z"/>
			<path class="st7" d="M255.4,667.1h-13.1c0,1.4,0.3,2.5,0.9,3.4c0.6,0.9,1.3,1.6,2.2,2.1c0.9,0.5,1.9,0.7,3,0.7
				c1.5,0,2.7-0.4,3.8-1.1c1-0.7,1.6-1.7,1.9-3h1.3c-0.3,1.5-1.1,2.8-2.3,3.8c-1.2,1-2.8,1.4-4.7,1.4c-1.4,0-2.7-0.3-3.8-1
				c-1.1-0.6-2-1.5-2.6-2.7c-0.6-1.2-1-2.6-1-4.2c0-1.6,0.3-3,0.9-4.1c0.6-1.2,1.5-2.1,2.6-2.7c1.1-0.6,2.4-0.9,3.8-0.9
				c1.5,0,2.7,0.3,3.8,0.9c1.1,0.6,1.9,1.5,2.4,2.5c0.6,1,0.8,2.2,0.8,3.3C255.4,666.3,255.4,666.8,255.4,667.1z M253.5,662.7
				c-0.5-0.9-1.3-1.6-2.2-2.1c-0.9-0.5-1.9-0.7-3-0.7s-2,0.2-3,0.7c-0.9,0.5-1.6,1.2-2.2,2.1c-0.6,0.9-0.9,2.1-0.9,3.4h11.9
				C254.2,664.7,254,663.6,253.5,662.7z"/>
			<path class="st7" d="M260.2,673.3c-1.1-0.7-1.7-1.8-1.8-3.2h1.3c0.1,1,0.5,1.8,1.4,2.4c0.8,0.6,1.9,0.9,3.3,0.9
				c1.2,0,2.1-0.3,2.8-0.9c0.7-0.6,1-1.3,1-2.2c0-0.6-0.2-1.1-0.5-1.5c-0.4-0.4-0.8-0.7-1.4-0.9c-0.5-0.2-1.3-0.4-2.2-0.7
				c-1.1-0.3-2-0.6-2.7-0.9c-0.7-0.3-1.3-0.7-1.8-1.3c-0.5-0.6-0.7-1.4-0.7-2.3c0-0.7,0.2-1.4,0.6-2c0.4-0.6,1-1.1,1.8-1.4
				c0.8-0.4,1.6-0.5,2.6-0.5c1.6,0,2.9,0.4,3.9,1.2c1,0.8,1.5,1.9,1.6,3.3H268c-0.1-1-0.4-1.8-1.2-2.5s-1.7-1-3-1
				c-1.1,0-2,0.3-2.7,0.8c-0.7,0.6-1.1,1.2-1.1,2c0,0.7,0.2,1.3,0.6,1.7c0.4,0.4,0.9,0.8,1.5,1c0.6,0.2,1.4,0.5,2.3,0.7
				c1.1,0.3,1.9,0.6,2.6,0.8s1.2,0.7,1.6,1.2c0.4,0.5,0.7,1.2,0.7,2.1c0,0.8-0.2,1.5-0.6,2.1c-0.4,0.6-1,1.1-1.8,1.5
				c-0.8,0.4-1.6,0.5-2.6,0.5C262.6,674.4,261.2,674.1,260.2,673.3z"/>
			<path class="st7" d="M273.1,655.3c-0.2-0.2-0.3-0.5-0.3-0.8c0-0.3,0.1-0.6,0.3-0.8c0.2-0.2,0.5-0.3,0.8-0.3
				c0.3,0,0.6,0.1,0.8,0.3c0.2,0.2,0.3,0.5,0.3,0.8c0,0.3-0.1,0.6-0.3,0.8c-0.2,0.2-0.5,0.3-0.8,0.3
				C273.5,655.6,273.3,655.5,273.1,655.3z M274.4,659v15.2h-1.3V659H274.4z"/>
			<path class="st7" d="M289.7,660c1.1,0.8,1.9,1.8,2.4,3V659h1.3v15.7c0,1.4-0.3,2.6-0.9,3.7c-0.6,1.1-1.4,1.9-2.5,2.4
				s-2.2,0.9-3.5,0.9c-1.9,0-3.5-0.5-4.7-1.4c-1.3-0.9-2.1-2.1-2.5-3.7h1.3c0.4,1.2,1.1,2.2,2.1,2.9c1,0.7,2.3,1.1,3.8,1.1
				c1.1,0,2-0.2,2.9-0.7c0.9-0.5,1.5-1.2,2-2s0.7-1.9,0.7-3.1v-4.5c-0.4,1.2-1.2,2.2-2.4,3c-1.1,0.8-2.5,1.2-4.1,1.2
				c-1.4,0-2.7-0.3-3.8-1c-1.1-0.6-2-1.6-2.6-2.7c-0.6-1.2-0.9-2.6-0.9-4.1s0.3-2.9,0.9-4.1c0.6-1.2,1.5-2.1,2.6-2.7
				c1.1-0.6,2.4-1,3.8-1C287.2,658.8,288.6,659.2,289.7,660z M291.2,663.1c-0.6-1-1.3-1.8-2.3-2.4c-1-0.5-2-0.8-3.2-0.8
				c-1.2,0-2.3,0.3-3.2,0.8c-0.9,0.5-1.7,1.3-2.2,2.3c-0.5,1-0.8,2.2-0.8,3.6c0,1.4,0.3,2.6,0.8,3.6c0.5,1,1.3,1.8,2.2,2.3
				c0.9,0.5,2,0.8,3.2,0.8c1.2,0,2.2-0.3,3.2-0.8c1-0.5,1.7-1.3,2.3-2.4c0.5-1,0.8-2.2,0.8-3.5C292,665.3,291.8,664.1,291.2,663.1z"
				/>
			<path class="st7" d="M309.2,660.4c1.1,1.1,1.7,2.8,1.7,4.9v8.9h-1.2v-8.8c0-1.8-0.5-3.2-1.4-4.2c-0.9-1-2.2-1.4-3.7-1.4
				c-1.6,0-3,0.5-3.9,1.6c-1,1-1.5,2.6-1.5,4.6v8.2h-1.3V659h1.3v3.2c0.4-1.1,1.1-2,2.1-2.6c1-0.6,2.2-0.9,3.5-0.9
				C306.6,658.7,308,659.3,309.2,660.4z"/>
			<path class="st7" d="M325.1,660.1v10.1c0,1.1,0.2,1.9,0.6,2.3c0.4,0.4,1.1,0.6,2.2,0.6h1.7v1.1h-1.9c-1.3,0-2.3-0.3-2.9-0.9
				c-0.6-0.6-0.9-1.7-0.9-3.1v-10.1h-2.3V659h2.3v-3.9h1.3v3.9h4.5v1.1H325.1z"/>
			<path class="st7" d="M344.2,660.4c1.1,1.1,1.7,2.8,1.7,4.9v8.9h-1.2v-8.8c0-1.8-0.5-3.2-1.4-4.2c-0.9-1-2.2-1.4-3.7-1.4
				c-1.6,0-3,0.5-3.9,1.6c-1,1-1.5,2.6-1.5,4.6v8.2h-1.3v-20.7h1.3v8.7c0.4-1.1,1.1-2,2.2-2.6c1-0.6,2.2-0.9,3.5-0.9
				C341.6,658.7,343.1,659.3,344.2,660.4z"/>
			<path class="st7" d="M364,667.1h-13.1c0,1.4,0.3,2.5,0.9,3.4c0.6,0.9,1.3,1.6,2.2,2.1c0.9,0.5,1.9,0.7,3,0.7
				c1.5,0,2.7-0.4,3.8-1.1c1-0.7,1.6-1.7,1.9-3h1.3c-0.3,1.5-1.1,2.8-2.3,3.8c-1.2,1-2.8,1.4-4.7,1.4c-1.4,0-2.7-0.3-3.8-1
				c-1.1-0.6-2-1.5-2.6-2.7c-0.6-1.2-1-2.6-1-4.2c0-1.6,0.3-3,0.9-4.1c0.6-1.2,1.5-2.1,2.6-2.7c1.1-0.6,2.4-0.9,3.8-0.9
				c1.5,0,2.7,0.3,3.8,0.9c1.1,0.6,1.9,1.5,2.4,2.5c0.6,1,0.8,2.2,0.8,3.3C364.1,666.3,364.1,666.8,364,667.1z M362.1,662.7
				c-0.5-0.9-1.3-1.6-2.2-2.1c-0.9-0.5-1.9-0.7-3-0.7s-2,0.2-3,0.7c-0.9,0.5-1.6,1.2-2.2,2.1c-0.6,0.9-0.9,2.1-0.9,3.4h11.9
				C362.9,664.7,362.6,663.6,362.1,662.7z"/>
			<path class="st7" d="M381.6,660.1h-3.9v14.1h-1.3v-14.1h-2.3V659h2.3V658c0-1.6,0.4-2.8,1.2-3.5c0.8-0.8,2.1-1.2,3.9-1.2v1.1
				c-1.5,0-2.5,0.3-3,0.8c-0.6,0.6-0.9,1.5-0.9,2.7v1.1h3.9V660.1z"/>
			<path class="st7" d="M397.7,659v15.2h-1.3v-3.3c-0.4,1.2-1.1,2-2.1,2.6c-1,0.6-2.1,0.9-3.4,0.9c-1.8,0-3.3-0.6-4.4-1.7
				s-1.7-2.8-1.7-4.9V659h1.2v8.8c0,1.8,0.5,3.2,1.4,4.2c0.9,1,2.2,1.4,3.7,1.4c1.6,0,3-0.5,3.9-1.6c1-1,1.5-2.6,1.5-4.6V659H397.7z
				"/>
			<path class="st7" d="M404.1,660.1v10.1c0,1.1,0.2,1.9,0.6,2.3c0.4,0.4,1.1,0.6,2.2,0.6h1.7v1.1h-1.9c-1.3,0-2.3-0.3-2.9-0.9
				c-0.6-0.6-0.9-1.7-0.9-3.1v-10.1h-2.3V659h2.3v-3.9h1.3v3.9h4.5v1.1H404.1z"/>
			<path class="st7" d="M424.8,659v15.2h-1.3v-3.3c-0.4,1.2-1.1,2-2.1,2.6c-1,0.6-2.1,0.9-3.4,0.9c-1.8,0-3.3-0.6-4.4-1.7
				s-1.7-2.8-1.7-4.9V659h1.2v8.8c0,1.8,0.5,3.2,1.4,4.2c0.9,1,2.2,1.4,3.7,1.4c1.6,0,3-0.5,3.9-1.6c1-1,1.5-2.6,1.5-4.6V659H424.8z
				"/>
			<path class="st7" d="M432.7,659.6c1-0.6,2.2-0.9,3.6-0.9v1.3h-0.4c-1.5,0-2.7,0.4-3.7,1.3c-1,0.8-1.5,2.2-1.5,4.2v8.8h-1.3V659
				h1.3v3.1C431,661,431.7,660.2,432.7,659.6z"/>
			<path class="st7" d="M452.8,667.1h-13.1c0,1.4,0.3,2.5,0.9,3.4c0.6,0.9,1.3,1.6,2.2,2.1c0.9,0.5,1.9,0.7,3,0.7
				c1.5,0,2.7-0.4,3.8-1.1c1-0.7,1.6-1.7,1.9-3h1.3c-0.3,1.5-1.1,2.8-2.3,3.8c-1.2,1-2.8,1.4-4.7,1.4c-1.4,0-2.7-0.3-3.8-1
				c-1.1-0.6-2-1.5-2.6-2.7c-0.6-1.2-1-2.6-1-4.2c0-1.6,0.3-3,0.9-4.1c0.6-1.2,1.5-2.1,2.6-2.7c1.1-0.6,2.4-0.9,3.8-0.9
				c1.5,0,2.7,0.3,3.8,0.9c1.1,0.6,1.9,1.5,2.4,2.5c0.6,1,0.8,2.2,0.8,3.3C452.9,666.3,452.9,666.8,452.8,667.1z M450.9,662.7
				c-0.5-0.9-1.3-1.6-2.2-2.1c-0.9-0.5-1.9-0.7-3-0.7s-2,0.2-3,0.7c-0.9,0.5-1.6,1.2-2.2,2.1c-0.6,0.9-0.9,2.1-0.9,3.4h11.9
				C451.7,664.7,451.5,663.6,450.9,662.7z"/>
			<path class="st7" d="M466.5,660.1v10.1c0,1.1,0.2,1.9,0.6,2.3c0.4,0.4,1.1,0.6,2.2,0.6h1.7v1.1h-1.9c-1.3,0-2.3-0.3-2.9-0.9
				c-0.6-0.6-0.9-1.7-0.9-3.1v-10.1h-2.3V659h2.3v-3.9h1.3v3.9h4.5v1.1H466.5z"/>
			<path class="st7" d="M477.2,673.5c-1.1-0.6-2-1.5-2.7-2.7s-1-2.6-1-4.2c0-1.6,0.3-2.9,1-4.1c0.7-1.2,1.6-2.1,2.7-2.7
				c1.1-0.6,2.4-0.9,3.9-0.9c1.4,0,2.7,0.3,3.8,0.9c1.1,0.6,2,1.5,2.7,2.7c0.6,1.2,1,2.6,1,4.1c0,1.6-0.3,3-1,4.2
				c-0.7,1.2-1.6,2.1-2.7,2.7c-1.1,0.6-2.4,1-3.9,1S478.3,674.1,477.2,673.5z M484.1,672.6c1-0.5,1.7-1.2,2.3-2.3
				c0.6-1,0.9-2.2,0.9-3.7c0-1.5-0.3-2.7-0.9-3.7c-0.6-1-1.3-1.8-2.3-2.3c-1-0.5-2-0.7-3.1-0.7c-1.1,0-2.1,0.2-3.1,0.7
				c-0.9,0.5-1.7,1.2-2.3,2.3s-0.9,2.2-0.9,3.7c0,1.5,0.3,2.7,0.9,3.7c0.6,1,1.3,1.8,2.3,2.3c0.9,0.5,2,0.7,3.1,0.7
				S483.1,673.1,484.1,672.6z"/>
			<path class="st7" d="M503,660c1.1,0.8,1.9,1.8,2.4,3V659h1.3v15.7c0,1.4-0.3,2.6-0.9,3.7c-0.6,1.1-1.4,1.9-2.5,2.4
				s-2.2,0.9-3.5,0.9c-1.9,0-3.5-0.5-4.7-1.4c-1.3-0.9-2.1-2.1-2.5-3.7h1.3c0.4,1.2,1.1,2.2,2.1,2.9c1,0.7,2.3,1.1,3.8,1.1
				c1.1,0,2-0.2,2.9-0.7c0.9-0.5,1.5-1.2,2-2s0.7-1.9,0.7-3.1v-4.5c-0.4,1.2-1.2,2.2-2.4,3c-1.1,0.8-2.5,1.2-4.1,1.2
				c-1.4,0-2.7-0.3-3.8-1c-1.1-0.6-2-1.6-2.6-2.7c-0.6-1.2-0.9-2.6-0.9-4.1s0.3-2.9,0.9-4.1c0.6-1.2,1.5-2.1,2.6-2.7
				c1.1-0.6,2.4-1,3.8-1C500.5,658.8,501.9,659.2,503,660z M504.5,663.1c-0.6-1-1.3-1.8-2.3-2.4c-1-0.5-2-0.8-3.2-0.8
				c-1.2,0-2.3,0.3-3.2,0.8c-0.9,0.5-1.7,1.3-2.2,2.3c-0.5,1-0.8,2.2-0.8,3.6c0,1.4,0.3,2.6,0.8,3.6c0.5,1,1.3,1.8,2.2,2.3
				c0.9,0.5,2,0.8,3.2,0.8c1.2,0,2.2-0.3,3.2-0.8c1-0.5,1.7-1.3,2.3-2.4c0.5-1,0.8-2.2,0.8-3.5C505.4,665.3,505.1,664.1,504.5,663.1
				z"/>
			<path class="st7" d="M524.9,667.1h-13.1c0,1.4,0.3,2.5,0.9,3.4c0.6,0.9,1.3,1.6,2.2,2.1c0.9,0.5,1.9,0.7,3,0.7
				c1.5,0,2.7-0.4,3.8-1.1c1-0.7,1.6-1.7,1.9-3h1.3c-0.3,1.5-1.1,2.8-2.3,3.8c-1.2,1-2.8,1.4-4.7,1.4c-1.4,0-2.7-0.3-3.8-1
				c-1.1-0.6-2-1.5-2.6-2.7c-0.6-1.2-1-2.6-1-4.2c0-1.6,0.3-3,0.9-4.1c0.6-1.2,1.5-2.1,2.6-2.7c1.1-0.6,2.4-0.9,3.8-0.9
				c1.5,0,2.7,0.3,3.8,0.9c1.1,0.6,1.9,1.5,2.4,2.5c0.6,1,0.8,2.2,0.8,3.3C524.9,666.3,524.9,666.8,524.9,667.1z M522.9,662.7
				c-0.5-0.9-1.3-1.6-2.2-2.1c-0.9-0.5-1.9-0.7-3-0.7s-2,0.2-3,0.7c-0.9,0.5-1.6,1.2-2.2,2.1c-0.6,0.9-0.9,2.1-0.9,3.4h11.9
				C523.7,664.7,523.5,663.6,522.9,662.7z"/>
			<path class="st7" d="M530.6,660.1v10.1c0,1.1,0.2,1.9,0.6,2.3c0.4,0.4,1.1,0.6,2.2,0.6h1.7v1.1h-1.9c-1.3,0-2.3-0.3-2.9-0.9
				c-0.6-0.6-0.9-1.7-0.9-3.1v-10.1H527V659h2.3v-3.9h1.3v3.9h4.5v1.1H530.6z"/>
			<path class="st7" d="M549.7,660.4c1.1,1.1,1.7,2.8,1.7,4.9v8.9h-1.2v-8.8c0-1.8-0.5-3.2-1.4-4.2c-0.9-1-2.2-1.4-3.7-1.4
				c-1.6,0-3,0.5-3.9,1.6c-1,1-1.5,2.6-1.5,4.6v8.2h-1.3v-20.7h1.3v8.7c0.4-1.1,1.1-2,2.2-2.6c1-0.6,2.2-0.9,3.5-0.9
				C547.1,658.7,548.6,659.3,549.7,660.4z"/>
			<path class="st7" d="M569.5,667.1h-13.1c0,1.4,0.3,2.5,0.9,3.4c0.6,0.9,1.3,1.6,2.2,2.1c0.9,0.5,1.9,0.7,3,0.7
				c1.5,0,2.7-0.4,3.8-1.1c1-0.7,1.6-1.7,1.9-3h1.3c-0.3,1.5-1.1,2.8-2.3,3.8c-1.2,1-2.8,1.4-4.7,1.4c-1.4,0-2.7-0.3-3.8-1
				c-1.1-0.6-2-1.5-2.6-2.7s-1-2.6-1-4.2c0-1.6,0.3-3,0.9-4.1c0.6-1.2,1.5-2.1,2.6-2.7c1.1-0.6,2.4-0.9,3.8-0.9
				c1.5,0,2.7,0.3,3.8,0.9c1.1,0.6,1.9,1.5,2.5,2.5c0.6,1,0.8,2.2,0.8,3.3C569.6,666.3,569.6,666.8,569.5,667.1z M567.6,662.7
				c-0.5-0.9-1.3-1.6-2.2-2.1c-0.9-0.5-1.9-0.7-3-0.7s-2,0.2-3,0.7c-0.9,0.5-1.6,1.2-2.2,2.1c-0.6,0.9-0.9,2.1-0.9,3.4h11.9
				C568.4,664.7,568.1,663.6,567.6,662.7z"/>
			<path class="st7" d="M576.6,659.6c1-0.6,2.2-0.9,3.6-0.9v1.3h-0.4c-1.5,0-2.7,0.4-3.7,1.3s-1.5,2.2-1.5,4.2v8.8h-1.3V659h1.3v3.1
				C575,661,575.7,660.2,576.6,659.6z"/>
		</g>
	</g>
</g>
</svg>
